<svg width="32.000000" height="32.000000" viewBox="0 0 32 32" fill="none" xmlns="http://www.w3.org/2000/svg" xmlns:xlink="http://www.w3.org/1999/xlink">
	<defs>
		<clipPath id="clip2_6944">
			<rect id="32/Cam" rx="0.000000" width="31.000000" height="31.000000" transform="translate(0.500000 0.500000)" fill="white" fill-opacity="0"/>
		</clipPath>
	</defs>
	<g clip-path="url(#clip2_6944)">
		<path id="Subtract" d="M4 11.1304C4 10.3002 4.3252 9.50395 4.90381 8.91689C5.48242 8.32982 6.26733 8 7.08569 8L17.0286 8C17.8469 8 18.6318 8.32982 19.2104 8.91689C19.7893 9.50395 20.1143 10.3002 20.1143 11.1304L20.1143 20.8696C20.1143 21.6998 19.7893 22.496 19.2104 23.0831C18.6318 23.6702 17.8469 24 17.0286 24L7.08569 24C6.26733 24 5.48242 23.6702 4.90381 23.0831C4.3252 22.496 4 21.6998 4 20.8696L4 11.1304ZM25.519 10.0035C25.7808 9.8708 26.0713 9.80821 26.3635 9.82167C26.6555 9.83513 26.9395 9.92418 27.1882 10.0803C27.4368 10.2365 27.6418 10.4546 27.7839 10.7139C27.926 10.9732 28.0005 11.2651 28 11.5617L28 20.441C28 20.7375 27.9253 21.029 27.783 21.2879C27.6406 21.5468 27.4355 21.7645 27.187 21.9204C26.9385 22.0762 26.6548 22.165 26.3628 22.1784C26.0708 22.1917 25.7805 22.1291 25.519 21.9965L21.7119 20.0654C21.541 19.9788 21.3972 19.8456 21.2966 19.6807C21.196 19.5158 21.1428 19.3257 21.1428 19.1318L21.1428 12.871C21.1431 12.6773 21.1965 12.4875 21.2971 12.3229C21.3975 12.1583 21.5413 12.0253 21.7119 11.9388L25.519 10.0035ZM8.19995 10.2856C7.20581 10.2856 6.3999 11.0531 6.3999 11.9999C6.3999 12.9467 7.20581 13.7142 8.19995 13.7142C9.19409 13.7142 10 12.9467 10 11.9999C10 11.0531 9.19409 10.2856 8.19995 10.2856Z" clip-rule="evenodd" fill="#40424D" fill-opacity="1.000000" fill-rule="evenodd"/>
	</g>
</svg>
