<svg width="211.000000" height="48.000000" viewBox="0 0 211 48" fill="none" xmlns="http://www.w3.org/2000/svg" xmlns:xlink="http://www.w3.org/1999/xlink">
	<defs>
		<clipPath id="clip2_7250">
			<rect id="Logo" rx="0.000000" width="210.804855" height="47.804863" transform="translate(0.097569 0.097569)" fill="white" fill-opacity="0"/>
		</clipPath>
	</defs>
	<g clip-path="url(#clip2_7250)">
		<path id="Vector" d="M44.46 21.42C43.53 12 36 4.49 26.55 3.55L44.46 21.42Z" fill="#BFBDB2" fill-opacity="1.000000" fill-rule="evenodd"/>
		<path id="Vector" d="M21.4 3.55C11.95 4.49 4.45 12 3.51 21.42L21.4 3.55Z" fill="#BFBDB2" fill-opacity="1.000000" fill-rule="evenodd"/>
		<path id="Vector" d="M48.01 17.89C47.07 8.47 39.55 0.96 30.09 0.02L48.01 17.89Z" fill="#BFBDB2" fill-opacity="1.000000" fill-rule="evenodd"/>
		<path id="Vector" d="M17.88 0.02C8.44 0.96 0.92 8.47 -0.02 17.89L17.88 0.02Z" fill="#BFBDB2" fill-opacity="1.000000" fill-rule="evenodd"/>
		<path id="Vector" d="M44.46 26.57C43.52 36.02 36 43.51 26.56 44.45L44.46 26.57Z" fill="#BFBDB2" fill-opacity="1.000000" fill-rule="evenodd"/>
		<path id="Vector" d="M21.4 44.45C11.95 43.51 4.45 36 3.51 26.57L21.4 44.45Z" fill="#BFBDB2" fill-opacity="1.000000" fill-rule="evenodd"/>
		<path id="Vector" d="M48 30.1C47.07 39.55 39.54 47.04 30.11 47.98L48 30.1Z" fill="#BFBDB2" fill-opacity="1.000000" fill-rule="evenodd"/>
		<path id="Vector" d="M17.88 47.98C8.44 47.04 0.92 39.53 -0.02 30.1L17.88 47.98Z" fill="#BFBDB2" fill-opacity="1.000000" fill-rule="evenodd"/>
		<path id="Vector" d="M78.55 3.58L81.96 3.58L81.96 42.8L88.57 42.8L88.57 44.44L78.55 44.44L78.55 3.58Z" fill="#423F42" fill-opacity="1.000000" fill-rule="evenodd"/>
		<path id="Vector" d="M141.73 3.58L141.73 36.85L134.5 3.58L134.21 3.58L132.96 3.58L130.79 3.58L130.79 44.44L134.21 44.44L134.21 9.42L141.73 44.44L143.39 44.44L145.15 44.44L145.15 3.58L141.73 3.58Z" fill="#423F42" fill-opacity="1.000000" fill-rule="evenodd"/>
		<path id="Vector" d="M119.35 3.58L115.87 3.58C112.84 3.58 110.34 6.08 110.34 9.1L110.34 38.94C110.34 41.96 112.84 44.46 115.87 44.46L119.35 44.46C122.38 44.46 124.88 41.96 124.88 38.94L124.88 9.1C124.88 6.08 122.38 3.58 119.35 3.58ZM121.34 40.01C121.34 41.77 120.09 43.19 118.49 43.19L116.73 43.19C115.13 43.19 113.88 41.77 113.88 40.01L113.88 8.01C113.88 6.25 115.13 4.83 116.73 4.83L118.49 4.83C120.09 4.83 121.34 6.25 121.34 8.01L121.34 40.01Z" fill="#423F42" fill-opacity="1.000000" fill-rule="evenodd"/>
		<path id="Vector" d="M101.41 27.35L101.41 40.05C101.41 41.82 100.16 43.25 98.62 43.25L96.8 43.25C95.26 43.25 93.95 41.82 93.95 40.05L93.95 8.03C93.95 6.25 95.26 4.83 96.8 4.83L98.62 4.83C100.16 4.83 101.41 6.25 101.41 8.03L101.41 20.65L104.83 20.65L104.83 9.1C104.83 6.08 102.37 3.58 99.36 3.58L95.94 3.58C92.91 3.58 90.47 6.08 90.47 9.1L90.47 38.96C90.47 41.98 92.93 44.48 95.94 44.48L99.36 44.48C102.39 44.48 104.83 41.98 104.83 38.96L104.83 27.33L101.41 27.33L101.41 27.35Z" fill="#423F42" fill-opacity="1.000000" fill-rule="evenodd"/>
		<path id="Vector" d="M69.59 44.44L73.24 44.44L69.49 3.58L66.46 3.58L65.9 3.58L64.59 3.58L60.25 44.46L62.13 44.46L62.81 37.92L68.98 37.92L69.59 44.44ZM63.01 36.24L66.15 6.47L68.85 36.24L63.01 36.24Z" fill="#423F42" fill-opacity="1.000000" fill-rule="evenodd"/>
		<path id="Vector" d="M156.98 3.61L153.91 3.61L153.91 23.61L156.98 23.61C159.03 23.61 160.07 22.48 160.07 20.22L160.07 7.05C160.07 5.97 159.81 5.13 159.28 4.53C158.78 3.9 158.01 3.61 156.98 3.61ZM158.64 20.22C158.64 21.52 158.09 22.19 156.98 22.19L155.36 22.19L155.36 5.08L156.98 5.08C157.53 5.08 157.94 5.25 158.23 5.6C158.5 5.95 158.64 6.44 158.64 7.07L158.64 20.22Z" fill="#423F42" fill-opacity="1.000000" fill-rule="nonzero"/>
		<path id="Vector" d="M207.9 3.61L204.83 3.61L204.83 23.61L207.9 23.61C209.95 23.61 210.99 22.48 210.99 20.22L210.99 7.05C210.99 5.97 210.73 5.13 210.21 4.53C209.7 3.9 208.92 3.61 207.9 3.61ZM209.56 20.22C209.56 21.52 209.01 22.19 207.9 22.19L206.28 22.19L206.28 5.08L207.9 5.08C208.45 5.08 208.86 5.25 209.15 5.6C209.42 5.95 209.56 6.44 209.56 7.07L209.56 20.22Z" fill="#423F42" fill-opacity="1.000000" fill-rule="nonzero"/>
		<path id="Vector" d="M169.35 15.26L168.01 15.26L168.01 20.41C168.01 21.09 167.89 21.58 167.67 21.91C167.44 22.22 167.05 22.38 166.48 22.38C165.37 22.38 164.8 21.72 164.8 20.41L164.8 6.81C164.8 6.13 164.94 5.64 165.21 5.31C165.49 4.99 165.9 4.84 166.48 4.84C167.07 4.84 167.46 4.99 167.69 5.31C167.91 5.62 168.03 6.13 168.03 6.81L168.03 12.25L169.37 12.25L169.37 6.79C169.37 4.53 168.42 3.39 166.5 3.39C164.41 3.39 163.36 4.54 163.36 6.85L163.36 20.47C163.36 22.71 164.41 23.84 166.5 23.84C167.5 23.84 168.22 23.57 168.67 23C169.14 22.44 169.37 21.58 169.37 20.41L169.37 15.26L169.35 15.26Z" fill="#423F42" fill-opacity="1.000000" fill-rule="nonzero"/>
		<path id="Vector" d="M181.18 3.61L182.53 3.61L182.53 23.61L181.18 23.61L181.18 3.61Z" fill="#423F42" fill-opacity="1.000000" fill-rule="evenodd"/>
		<path id="Vector" d="M176.19 3.61L177.5 3.61L177.5 23.61L176.19 23.61L176.19 3.61Z" fill="#423F42" fill-opacity="1.000000" fill-rule="evenodd"/>
		<path id="Vector" d="M181.18 23.61L178.79 3.61L177.48 3.61L179.87 23.61L181.18 23.61Z" fill="#423F42" fill-opacity="1.000000" fill-rule="nonzero"/>
		<path id="Vector" d="M191.28 22.96C191.77 22.4 192.02 21.54 192.02 20.43L192.02 6.79C192.02 5.68 191.77 4.82 191.28 4.25C190.79 3.69 190.01 3.39 188.94 3.39C186.89 3.39 185.85 4.53 185.85 6.79L185.85 20.43C185.85 22.69 186.89 23.82 188.94 23.82C190.01 23.82 190.79 23.55 191.28 22.96ZM187.28 20.43L187.28 6.79C187.28 5.5 187.82 4.84 188.94 4.84C190.03 4.84 190.6 5.48 190.6 6.79L190.6 20.43C190.6 21.73 190.05 22.4 188.94 22.4C187.82 22.4 187.28 21.73 187.28 20.43Z" fill="#423F42" fill-opacity="1.000000" fill-rule="nonzero"/>
		<path id="Vector" d="M200.25 14.14L201.72 14.14L201.72 7.2C201.72 5.89 201.43 4.95 200.86 4.41C200.29 3.86 199.43 3.59 198.3 3.59L195.31 3.59L195.31 23.61L196.74 23.61L196.74 19.69L196.74 17.11L196.74 15.8L196.74 14.14L196.74 5.05L198.3 5.05C199.04 5.05 199.55 5.21 199.82 5.52C200.1 5.83 200.23 6.38 200.23 7.2L200.25 14.14L198.77 14.14L200.66 23.61L202.25 23.61L200.25 14.14Z" fill="#423F42" fill-opacity="1.000000" fill-rule="nonzero"/>
		<path id="Vector" d="M210.02 33.22L210.97 33.22L208.73 38.88L207.83 38.88L210.02 33.22Z" fill="#423F42" fill-opacity="1.000000" fill-rule="nonzero"/>
		<path id="Vector" d="M210.02 44.56L210.97 44.56L208.73 38.89L207.83 38.89L210.02 44.56Z" fill="#423F42" fill-opacity="1.000000" fill-rule="nonzero"/>
		<path id="Vector" d="M206.86 33.22L207.7 33.22L207.7 44.56L206.86 44.56L206.86 33.22Z" fill="#423F42" fill-opacity="1.000000" fill-rule="evenodd"/>
		<path id="Vector" d="M153.92 34.04L155.27 34.04L155.27 44.56L156.09 44.56L156.09 34.04L157.44 34.04L157.44 33.22L153.92 33.22L153.92 34.04Z" fill="#423F42" fill-opacity="1.000000" fill-rule="nonzero"/>
		<path id="Vector" d="M162.04 39.17L163.6 39.17L163.6 38.37L162.04 38.37L162.04 34.04L164.17 34.04L164.17 33.22L161.22 33.22L161.22 44.56L164.23 44.56L164.23 43.74L162.04 43.74L162.04 39.17Z" fill="#423F42" fill-opacity="1.000000" fill-rule="nonzero"/>
		<path id="Vector" d="M169.77 33.09C168.58 33.09 167.99 33.73 167.99 35.04L167.99 42.75C167.99 44.02 168.58 44.66 169.77 44.66C170.34 44.66 170.75 44.5 171 44.19C171.26 43.88 171.39 43.39 171.39 42.73L171.39 39.74L170.63 39.74L170.63 42.75C170.63 43.14 170.57 43.41 170.43 43.59C170.3 43.76 170.08 43.86 169.75 43.86C169.13 43.86 168.79 43.49 168.79 42.75L168.79 35.04C168.79 34.65 168.87 34.38 169.03 34.2C169.18 34.03 169.42 33.93 169.75 33.93C170.08 33.93 170.32 34.03 170.43 34.2C170.55 34.38 170.63 34.67 170.63 35.04L170.63 38.03L171.39 38.03L171.39 35.02C171.39 33.73 170.84 33.09 169.77 33.09Z" fill="#423F42" fill-opacity="1.000000" fill-rule="nonzero"/>
		<path id="Vector" d="M178.54 38.37L176.68 38.37L176.68 33.22L175.86 33.22L175.86 44.56L176.68 44.56L176.68 39.19L178.54 39.19L178.54 44.56L179.36 44.56L179.36 33.22L178.54 33.22L178.54 38.37Z" fill="#423F42" fill-opacity="1.000000" fill-rule="nonzero"/>
		<path id="Vector" d="M185.68 33.22L183.94 33.22L183.94 44.56L184.76 44.56L184.76 40.69L185.7 40.69C186.34 40.69 186.81 40.54 187.12 40.21C187.44 39.89 187.59 39.37 187.59 38.65L187.59 35.27C187.59 34.55 187.44 34.04 187.14 33.71C186.81 33.38 186.34 33.22 185.68 33.22ZM186.77 38.67C186.77 39.11 186.69 39.43 186.52 39.6C186.34 39.8 186.07 39.88 185.7 39.88L184.76 39.88L184.76 34.04L185.68 34.04C186.09 34.04 186.38 34.14 186.54 34.35C186.69 34.55 186.77 34.86 186.77 35.27L186.77 38.67Z" fill="#423F42" fill-opacity="1.000000" fill-rule="nonzero"/>
		<path id="Vector" d="M192.37 33.22L190.71 44.56L191.51 44.56L191.8 42.51L193.79 42.51L194.07 44.56L194.89 44.56L193.32 33.22L192.37 33.22ZM191.9 41.75L192.82 35.27L193.67 41.75L191.9 41.75Z" fill="#423F42" fill-opacity="1.000000" fill-rule="nonzero"/>
		<path id="Vector" d="M201.56 39.2L202.38 39.2L202.38 35.25C202.38 34.51 202.22 33.99 201.89 33.67C201.58 33.36 201.09 33.21 200.44 33.21L198.74 33.21L198.74 44.54L199.57 44.54L199.57 42.34L199.57 40.87L199.57 40.13L199.57 39.2L199.57 34.05L200.44 34.05C200.87 34.05 201.15 34.12 201.3 34.3C201.46 34.47 201.54 34.79 201.54 35.25L201.56 39.2L200.72 39.2L201.79 44.56L202.69 44.56L201.56 39.2Z" fill="#423F42" fill-opacity="1.000000" fill-rule="nonzero"/>
	</g>
</svg>
