<svg width="28" height="37.99" viewBox="0 0 30 40" fill="none" xmlns="http://www.w3.org/2000/svg">
<path d="M4.5 21.5002C2.79 22.6722 1 25.2941 1 28.0001C1 32.0601 5.975 39.0001 10.462 39.0001H21.942C26.332 39.0001 29 35.1501 29 32.0601V19.0101C29 18.2144 28.6839 17.4513 28.1213 16.8887C27.5587 16.3261 26.7956 16.0101 26 16.0101H25.99C25.197 16.0101 24.4365 16.3251 23.8758 16.8858C23.315 17.4465 17.5 14.2072 17.5 15.0002" fill="#000000"/>
<path d="M4.5 21.5002C2.79 22.6722 1 25.2941 1 28.0001C1 32.0601 5.975 39.0001 10.462 39.0001H21.942C26.332 39.0001 29 35.1501 29 32.0601V19.0101C29 18.2144 28.6839 17.4513 28.1213 16.8887C27.5587 16.3261 26.7956 16.0101 26 16.0101H25.99C25.197 16.0101 24.4365 16.3251 23.8758 16.8858C23.315 17.4465 17.5 14.2072 17.5 15.0002" stroke="#ffffff" stroke-linecap="round"/>
<path d="M4.98102 24.4451V4.00507C4.98115 3.61077 5.05906 3.22038 5.21028 2.85624C5.3615 2.4921 5.58307 2.16136 5.86229 1.88297C6.14152 1.60459 6.47291 1.38401 6.83751 1.23388C7.2021 1.08375 7.59273 1.00702 7.98702 1.00807C8.78517 1.01019 9.54989 1.3288 10.1134 1.89403C10.677 2.45925 10.9933 3.22492 10.993 4.02307V19.5921" fill="#000000"/>
<path d="M4.98102 24.4451V4.00507C4.98115 3.61077 5.05906 3.22038 5.21028 2.85624C5.3615 2.4921 5.58307 2.16136 5.86229 1.88297C6.14152 1.60459 6.47291 1.38401 6.83751 1.23388C7.2021 1.08375 7.59273 1.00702 7.98702 1.00807C8.78517 1.01019 9.54989 1.3288 10.1134 1.89403C10.677 2.45925 10.9933 3.22492 10.993 4.02307V19.5921" stroke="#ffffff" stroke-linecap="round"/>
<path d="M10.993 19.0081V15.0161C11.0132 14.2299 11.3398 13.4827 11.903 12.9338C12.4662 12.3849 13.2215 12.0777 14.008 12.0777C14.7944 12.0777 15.5498 12.3849 16.113 12.9338C16.6762 13.4827 17.0027 14.2299 17.023 15.0161V19.0081" fill="#000000"/>
<path d="M10.993 19.0081V15.0161C11.0132 14.2299 11.3398 13.4827 11.903 12.9338C12.4662 12.3849 13.2215 12.0777 14.008 12.0777C14.7944 12.0777 15.5498 12.3849 16.113 12.9338C16.6762 13.4827 17.0027 14.2299 17.023 15.0161V19.0081" stroke="#ffffff" stroke-linecap="round" stroke-linejoin="round"/>
<path d="M17 18.7161V16.0031C17 15.2074 17.3161 14.4444 17.8787 13.8817C18.4413 13.3191 19.2044 13.0031 20 13.0031C20.7956 13.0031 21.5587 13.3191 22.1213 13.8817C22.6839 14.4444 23 15.2074 23 16.0031V19.0031" fill="#000000"/>
<path d="M17 18.7161V16.0031C17 15.2074 17.3161 14.4444 17.8787 13.8817C18.4413 13.3191 19.2044 13.0031 20 13.0031C20.7956 13.0031 21.5587 13.3191 22.1213 13.8817C22.6839 14.4444 23 15.2074 23 16.0031V19.0031" stroke="#ffffff" stroke-linecap="round" stroke-linejoin="round"/>
</svg>
